<?xml version="1.0" encoding="utf-8"?>
<!-- Svg Vector Icons : http://www.onlinewebfonts.com/icon -->
<!DOCTYPE svg PUBLIC "-//W3C//DTD SVG 1.1//EN" "http://www.w3.org/Graphics/SVG/1.1/DTD/svg11.dtd">
<svg version="1.1" xmlns="http://www.w3.org/2000/svg" xmlns:xlink="http://www.w3.org/1999/xlink" x="0px" y="0px" viewBox="0 0 1000 1000" enable-background="new 0 0 1000 1000" xml:space="preserve">
<metadata> Svg Vector Icons : http://www.onlinewebfonts.com/icon </metadata>
<g><g transform="translate(0.000000,512.000000) scale(0.100000,-0.100000)"><path d="M1426.4,4979.8c-143.5-70.8-139.7-45.9-139.7-1092.9c0-882.4,1.9-926.4,38.3-985.7c65.1-107.2,114.8-120.6,472.8-120.6c289,0,327.3,3.8,384.7,38.3c97.6,59.3,118.7,134,118.7,421.1v248.8h991.5h989.6l67-90c36.4-49.8,109.1-122.5,158.9-158.9l90-67V1555.5V-61.8l-114.8-44c-260.3-101.4-537.9-338.8-687.1-585.7c-227.8-379-254.6-895.8-68.9-1292c153.1-323.5,363.7-534,683.3-687.1l187.6-90v-86.1c0-80.4-5.7-90-90-153.1c-49.8-36.4-122.5-109.1-158.9-158.9l-67-90h-989.6h-991.5v248.8c0,287.1-21.1,361.7-118.7,421.1c-57.4,34.4-95.7,38.3-384.7,38.3c-357.9,0-407.7-13.4-472.8-120.6c-36.4-59.3-38.3-103.3-38.3-985.7c0-1050.8-1.9-1031.7,141.6-1096.8c65.1-28.7,128.3-36.4,361.8-36.4c308.2,0,371.3,13.4,453.6,103.4c45.9,49.8,47.9,65.1,53.6,338.8l5.7,285.2h983.8h981.9l80.4-99.5c181.8-227.8,413.4-333,694.8-317.7c262.2,15.3,446,112.9,614.4,325.4l70.8,91.9h983.8h983.8l5.7-285.2c5.7-273.7,7.6-289,53.6-338.8c82.3-88.1,145.5-103.4,453.7-103.4c243.1,0,290.9,5.7,361.7,38.3c145.5,70.8,141.6,45.9,141.6,1094.9c0,882.4-1.9,926.4-38.3,985.7c-65.1,107.2-114.8,120.6-472.8,120.6c-289,0-327.3-3.8-384.7-38.3c-97.6-59.3-118.7-134-118.7-421.1v-248.8h-991.5h-989.6l-67,90c-36.4,49.8-109.1,122.5-158.8,158.9c-84.2,63.2-90,72.7-90,153.1v88l158.9,70.8c199.1,90,390.5,233.5,513,384.7c124.4,151.2,254.6,421.1,296.7,612.5c68.9,319.6,1.9,717.8-166.5,999.1c-149.3,246.9-426.8,484.3-687.1,585.7l-114.8,44v1617.4v1619.3l97.6,72.7c53.6,38.3,122.5,109.1,157,157l59.3,84.2h991.5h991.5v-248.8c0-287.1,21.1-361.8,118.7-421.1c57.4-34.4,95.7-38.3,388.5-38.3c289,0,333.1,3.8,386.7,38.3c122.5,74.6,120.6,55.5,120.6,1071.9c0,1047,1.9,1027.9-141.6,1092.9c-65.1,28.7-128.2,36.4-361.7,36.4c-308.2,0-371.3-13.4-453.7-103.4c-45.9-49.8-47.9-65.1-53.6-338.8l-5.7-285.2h-983.8h-981.9l-72.8,91.9c-185.6,225.9-392.4,329.2-658.4,329.2c-258.4,0-482.3-111-650.8-321.6l-80.4-99.5h-981.9h-983.8l-5.7,285.2c-5.7,273.7-7.7,289-53.6,338.8c-82.3,88.1-145.5,103.4-453.6,103.4C1543.2,5020,1497.3,5014.3,1426.4,4979.8z M5187.6-846.6c130.2-38.3,289-185.7,350.3-319.7c34.5-76.6,44-135.9,44-245c1.9-168.4-40.2-275.6-151.2-398.1c-223.9-248.8-637.4-248.8-861.3,0c-114.8,124.4-153.1,229.7-151.2,407.7c0,189.5,53.6,306.3,201,438.3C4772.2-825.6,4975.1-783.4,5187.6-846.6z"/></g></g>
</svg>