<svg id="Capa_1" enable-background="new 0 0 512 512" height="512" viewBox="0 0 512 512" width="512" xmlns="http://www.w3.org/2000/svg"><g><circle cx="222.943" cy="456.835" r="10"/><path d="m308.353 93.648h-170.82c-5.534 0-10.02 4.486-10.02 10.02v75.412c0 5.534 4.486 10.02 10.02 10.02h170.82c5.533 0 10.02-4.486 10.02-10.02v-75.412c0-5.534-4.486-10.02-10.02-10.02zm-10.019 75.412h-150.781v-55.373h150.781z"/><path d="m231.62 238.059c-1.79-3.1-5.097-5.01-8.677-5.01s-6.887 1.91-8.677 5.01l-39.677 68.722c-10.092 17.481-10.092 38.353 0 55.834s28.169 27.917 48.354 27.917 38.261-10.436 48.354-27.917 10.093-38.353 0-55.834zm22.323 114.537c-6.471 11.207-18.059 17.898-31 17.898-12.94 0-24.529-6.691-31-17.898-6.47-11.207-6.47-24.588 0-35.795l31-53.693 31 53.693c6.47 11.207 6.47 24.588 0 35.795z"/><path d="m455.611 115.528-87.969-20.516v-29.828h14.569c8.288 0 15.029-6.742 15.029-15.029v-35.126c.001-8.287-6.741-15.029-15.029-15.029h-318.536c-8.287 0-15.029 6.742-15.029 15.029v35.125c0 8.287 6.742 15.029 15.029 15.029h14.569v381.632h-14.569c-8.287 0-15.029 6.742-15.029 15.029v35.125c0 8.287 6.742 15.029 15.029 15.029h318.536c8.288 0 15.029-6.742 15.029-15.029v-35.125c0-8.287-6.742-15.029-15.029-15.029h-14.569v-56.283h45.689c23.156 0 41.994-18.839 41.994-41.995v-163.66c4.58-.923 8.029-4.968 8.029-9.82v-49.772c0-4.656-3.208-8.699-7.743-9.757zm-46.743 9.676 34.447 8.033v31.801h-34.447zm-20.039-4.674v54.527c0 4.974 3.628 9.089 8.379 9.874v145.342h-29.566v-214.684zm-320.144-100.491h308.517v25.106h-308.517zm199.172 426.777c-5.533 0-10.02 4.486-10.02 10.02s4.486 10.02 10.02 10.02h109.344v25.106h-308.516v-25.106h109.345c5.534 0 10.02-4.486 10.02-10.02s-4.486-10.02-10.02-10.02h-79.746v-381.632h249.319v381.632zm145.474-76.322h-45.689v-20.181h39.585c5.533 0 10.02-4.486 10.02-10.02v-155.216h18.039v163.461c0 12.106-9.85 21.956-21.955 21.956z"/></g></svg>