<svg width="13.999999999999998" height="13.999999999999998" xmlns="http://www.w3.org/2000/svg">
 <g>
  <title>Layer 1</title>
  <g id="svg_1">
   <g id="svg_2" data-name="Layer 2">
    <g id="svg_3" data-name="options-2">
     <rect transform="rotate(90 400 300)" fill="#CE7975" id="svg_4" width="24" height="24" opacity="0" y="288" x="388"/>
     <path fill="#CE7975" id="svg_5" d="m407,297a3,3 0 0 0 -2.82,2l-13.18,0a1,1 0 0 0 0,2l13.18,0a3,3 0 1 0 2.82,-4z"/>
     <path fill="#CE7975" id="svg_6" d="m391,295l1.18,0a3,3 0 0 0 5.64,0l11.18,0a1,1 0 0 0 0,-2l-11.18,0a3,3 0 0 0 -5.64,0l-1.18,0a1,1 0 0 0 0,2z"/>
     <path fill="#CE7975" id="svg_7" d="m409,305l-7.18,0a3,3 0 0 0 -5.64,0l-5.18,0a1,1 0 0 0 0,2l5.18,0a3,3 0 0 0 5.64,0l7.18,0a1,1 0 0 0 0,-2z"/>
    </g>
   </g>
  </g>
  <g stroke="null" fill="#273141">
   <g stroke="null" data-name="Layer 2">
    <g stroke="null" data-name="options-2">
     <rect stroke="null" fill="#d8093a" transform="matrix(0 0.658922 -0.594021 0 6.50751 -1.65594)" x="1.38476" y="-12.76336" opacity="0" height="24" width="24"/>
     <path stroke="null" fill="#d8093a" d="m11.11911,5.1868a1.78206,1.97677 0 0 0 -1.67514,1.31784l-7.8292,0a0.59402,0.65892 0 0 0 0,1.31784l7.8292,0a1.78206,1.97677 0 1 0 1.67514,-2.63569z"/>
     <path stroke="null" fill="#d8093a" d="m1.61478,3.86896l0.70094,0a1.78206,1.97677 0 0 0 3.35028,0l6.64116,0a0.59402,0.65892 0 0 0 0,-1.31784l-6.64116,0a1.78206,1.97677 0 0 0 -3.35028,0l-0.70094,0a0.59402,0.65892 0 0 0 0,1.31784z"/>
     <path stroke="null" fill="#d8093a" d="m12.30716,10.45818l-4.26507,0a1.78206,1.97677 0 0 0 -3.35028,0l-3.07703,0a0.59402,0.65892 0 0 0 0,1.31784l3.07703,0a1.78206,1.97677 0 0 0 3.35028,0l4.26507,0a0.59402,0.65892 0 0 0 0,-1.31784z"/>
    </g>
   </g>
  </g>
 </g>

</svg>