<?xml version="1.0" standalone="no"?>
<!DOCTYPE svg PUBLIC "-//W3C//DTD SVG 20010904//EN"
 "http://www.w3.org/TR/2001/REC-SVG-20010904/DTD/svg10.dtd">
<svg version="1.0" xmlns="http://www.w3.org/2000/svg"
 width="1280.000000pt" height="1280.000000pt" viewBox="0 0 1280.000000 1280.000000"
 preserveAspectRatio="xMidYMid meet">
<metadata>
Created by potrace 1.16, written by Peter Selinger 2001-2019
</metadata>
<g transform="translate(0.000000,1280.000000) scale(0.100000,-0.100000)"
fill="#000000" stroke="none">
<path d="M2150 9126 c-90 -27 -158 -61 -226 -112 -28 -22 -383 -326 -790 -676
-488 -420 -752 -655 -778 -690 -55 -75 -102 -180 -120 -270 -23 -111 -24
-1279 -1 -1450 82 -623 518 -1125 1125 -1294 97 -27 146 -30 193 -10 43 18 95
78 101 118 3 18 10 71 16 117 68 507 462 912 972 997 143 24 337 15 473 -21
112 -29 270 -101 366 -166 82 -54 228 -196 284 -274 133 -186 203 -372 223
-595 11 -114 31 -163 85 -198 l41 -27 2219 -3 c2156 -2 2220 -2 2261 17 75 33
96 72 112 213 29 254 107 447 252 630 258 324 688 491 1092 424 305 -52 569
-211 752 -456 133 -178 206 -369 228 -600 5 -55 16 -112 24 -128 19 -36 65
-78 99 -91 19 -7 221 -11 601 -11 669 0 645 -3 737 89 93 93 89 62 89 787 0
388 -4 652 -11 700 -53 384 -307 730 -650 888 -163 75 -612 204 -904 260 -266
51 -565 85 -887 102 l-118 6 -72 65 c-929 834 -2113 1434 -3183 1613 -404 68
-260 64 -2500 67 l-2030 2 -75 -23z m1020 -1034 l0 -709 -1277 -6 c-702 -4
-1279 -5 -1281 -2 -2 2 9 22 25 44 38 52 1487 1296 1553 1334 27 16 71 32 97
37 26 4 236 8 466 9 l417 1 0 -708z m2780 5 l0 -704 -532 -6 c-293 -4 -838 -7
-1210 -7 l-678 0 0 710 0 710 1210 0 1210 0 0 -703z m547 658 c304 -39 623
-114 938 -220 665 -223 1381 -623 1994 -1113 23 -18 16 -19 -430 -25 -249 -4
-958 -7 -1576 -7 l-1123 0 0 690 0 690 39 0 c22 0 93 -7 158 -15z m3923 -1739
c322 -34 556 -76 845 -151 253 -65 470 -139 558 -190 175 -103 307 -273 369
-477 22 -71 22 -86 26 -670 l3 -598 -420 0 c-232 0 -421 2 -421 5 0 3 -9 49
-21 102 -112 518 -494 944 -999 1113 -243 82 -559 99 -820 44 -583 -121 -1045
-588 -1167 -1178 l-18 -86 -1027 0 -1028 0 0 1050 0 1050 1153 3 c2158 5 2793
2 2967 -17z m-4470 -1036 l0 -1050 -806 2 -807 3 -18 92 c-56 274 -209 554
-419 762 -212 211 -502 362 -801 417 -135 25 -410 25 -544 0 -306 -57 -568
-192 -790 -407 -202 -196 -332 -411 -405 -669 -15 -52 -32 -96 -38 -98 -31
-10 -236 117 -339 210 -248 226 -383 509 -400 846 l-6 112 242 0 c267 0 274 1
329 64 74 84 41 220 -65 275 -14 7 -104 11 -262 11 l-241 0 0 230 0 230 203 1
c111 1 1111 5 2222 8 1111 4 2228 8 2483 9 l462 2 0 -1050z"/>
<path d="M6850 6778 c-69 -47 -100 -123 -80 -198 13 -47 58 -103 98 -119 20
-8 134 -11 397 -9 l370 3 34 24 c40 29 71 91 71 146 0 55 -31 117 -71 146
l-34 24 -376 3 -375 3 -34 -23z"/>
<path d="M9705 5736 c-408 -67 -736 -369 -837 -772 -32 -127 -32 -360 0 -487
47 -188 135 -345 273 -484 176 -180 412 -285 669 -300 495 -28 929 290 1057
775 22 84 26 118 26 252 0 136 -3 167 -26 252 -99 372 -377 650 -742 744 -123
31 -301 40 -420 20z m290 -361 c151 -29 314 -129 402 -248 118 -160 165 -348
129 -528 -49 -244 -216 -433 -455 -517 -67 -23 -91 -26 -201 -26 -108 0 -136
4 -206 27 -199 66 -365 231 -431 431 -23 69 -27 98 -27 201 -1 107 2 130 28
209 57 173 176 311 341 392 140 70 271 88 420 59z"/>
<path d="M2681 5729 c-343 -40 -648 -258 -801 -574 -80 -163 -95 -237 -95
-450 1 -153 4 -192 22 -257 97 -346 341 -607 673 -718 99 -34 203 -49 328 -50
489 -1 907 341 1006 822 20 97 21 301 2 400 -86 446 -452 781 -907 828 -112
11 -122 11 -228 -1z m308 -381 c116 -35 199 -86 286 -173 92 -91 142 -177 175
-299 29 -106 25 -278 -9 -376 -68 -198 -214 -347 -415 -423 -77 -30 -89 -31
-221 -31 -132 0 -144 1 -221 31 -201 76 -348 226 -415 423 -34 99 -38 271 -10
375 34 123 84 208 176 300 179 179 423 244 654 173z"/>
</g>
</svg>
