<?xml version="1.0" encoding="iso-8859-1"?>
<!-- Generator: Adobe Illustrator 17.1.0, SVG Export Plug-In . SVG Version: 6.00 Build 0)  -->
<!DOCTYPE svg PUBLIC "-//W3C//DTD SVG 1.1//EN" "http://www.w3.org/Graphics/SVG/1.1/DTD/svg11.dtd">
<svg version="1.1" id="Capa_1" xmlns="http://www.w3.org/2000/svg" xmlns:xlink="http://www.w3.org/1999/xlink" x="0px" y="0px"
	 viewBox="0 0 511 511" style="enable-background:new 0 0 511 511;" xml:space="preserve">
<g>
	<path d="M163.026,280.457c-1.662-3.794-6.087-5.523-9.879-3.86c-3.794,1.662-5.522,6.085-3.86,9.879
		c1.8,4.109,2.713,8.492,2.713,13.025c0,17.92-14.58,32.5-32.5,32.5S87,317.42,87,299.5s14.58-32.5,32.5-32.5
		c4.523,0,8.897,0.909,13,2.702c3.795,1.658,8.217-0.073,9.876-3.869c1.659-3.795-0.074-8.217-3.869-9.876
		C132.498,253.332,126.104,252,119.5,252C93.309,252,72,273.309,72,299.5S93.309,347,119.5,347s47.5-21.309,47.5-47.5
		C167,292.882,165.663,286.475,163.026,280.457z"/>
	<path d="M371.026,280.457c-1.662-3.794-6.087-5.523-9.879-3.86c-3.794,1.662-5.522,6.085-3.86,9.879
		c1.8,4.109,2.713,8.492,2.713,13.025c0,17.92-14.58,32.5-32.5,32.5S295,317.42,295,299.5s14.58-32.5,32.5-32.5
		c4.523,0,8.897,0.909,13,2.702c3.796,1.658,8.217-0.073,9.876-3.869c1.659-3.795-0.074-8.217-3.869-9.876
		C340.498,253.332,334.104,252,327.5,252c-26.191,0-47.5,21.309-47.5,47.5s21.309,47.5,47.5,47.5s47.5-21.309,47.5-47.5
		C375,292.882,373.663,286.475,371.026,280.457z"/>
	<path d="M503.5,356h-4.813C462.58,317.141,462.991,244.336,463,243.595c0.036-2.857-1.555-5.487-4.103-6.782
		c-2.548-1.295-5.61-1.028-7.896,0.687l-13.517,10.137l-31.444-37.512C398.515,201.148,387.481,196,375.768,196H367v-8.5
		c0-4.142-3.358-7.5-7.5-7.5s-7.5,3.358-7.5,7.5v8.5h-48.5c-12.958,0-23.5,10.542-23.5,23.5v16c0,0.094,0.011,0.186,0.014,0.279
		c-6.519,4.87-12.252,10.727-17.014,17.33V147h16.5c4.142,0,7.5-3.358,7.5-7.5s-3.358-7.5-7.5-7.5h-120
		c-17.369,0-31.5,14.131-31.5,31.5V188H31.5C18.542,188,8,198.542,8,211.5v42.445c-4.765,2.647-8,7.728-8,13.555v40
		C0,320.458,10.542,331,23.5,331h23.022c12.223,28.21,40.328,48,72.978,48s60.754-19.79,72.978-48h62.044
		c12.223,28.21,40.328,48,72.978,48s60.754-19.79,72.978-48H416v0.5c0,21.78,17.72,39.5,39.5,39.5h48c4.142,0,7.5-3.358,7.5-7.5
		S507.642,356,503.5,356z M248,188h-73v-16.5c0-0.276,0.224-0.5,0.5-0.5H248V188z M23.5,316c-4.687,0-8.5-3.813-8.5-8.5v-40
		c0-0.276,0.224-0.5,0.5-0.5h31.475C42.508,276.93,40,287.924,40,299.5c0,5.657,0.604,11.174,1.733,16.5H23.5z M119.5,364
		C83.935,364,55,335.065,55,299.5S83.935,235,119.5,235s64.5,28.935,64.5,64.5S155.065,364,119.5,364z M119.5,220
		c-26.05,0-49.212,12.595-63.721,32.014C55.686,252.011,55.594,252,55.5,252H23v-40.5c0-4.687,3.813-8.5,8.5-8.5h104
		c4.142,0,7.5-3.358,7.5-7.5v-32c0-9.098,7.402-16.5,16.5-16.5H248v9h-72.5c-8.547,0-15.5,6.953-15.5,15.5v24
		c0,4.142,3.358,7.5,7.5,7.5H248v49h-40.5c-4.142,0-7.5,3.358-7.5,7.5s3.358,7.5,7.5,7.5H248v49h-50.733
		c1.129-5.326,1.733-10.843,1.733-16.5C199,255.664,163.336,220,119.5,220z M327.5,364c-35.565,0-64.5-28.935-64.5-64.5
		s28.935-64.5,64.5-64.5s64.5,28.935,64.5,64.5S363.065,364,327.5,364z M405.267,316c1.129-5.326,1.733-10.843,1.733-16.5
		c0-43.836-35.664-79.5-79.5-79.5c-11.576,0-22.57,2.508-32.5,6.975V219.5c0-4.687,3.813-8.5,8.5-8.5h72.268
		c7.265,0,14.109,3.193,18.776,8.761l31.449,37.518C419.648,264.446,416,273.797,416,283.5V316H405.267z M455.5,356
		c-13.509,0-24.5-10.991-24.5-24.5v-48c0-7.67,3.664-14.998,9.8-19.6l7.743-5.807c1.58,22.439,7.66,65.85,30.801,97.907H455.5z"/>
</g>
<g>
</g>
<g>
</g>
<g>
</g>
<g>
</g>
<g>
</g>
<g>
</g>
<g>
</g>
<g>
</g>
<g>
</g>
<g>
</g>
<g>
</g>
<g>
</g>
<g>
</g>
<g>
</g>
<g>
</g>
</svg>
