<?xml version="1.0" standalone="no"?>
<!DOCTYPE svg PUBLIC "-//W3C//DTD SVG 20010904//EN"
 "http://www.w3.org/TR/2001/REC-SVG-20010904/DTD/svg10.dtd">
<svg version="1.0" xmlns="http://www.w3.org/2000/svg"
 width="1280.000000pt" height="654.000000pt" viewBox="0 0 1280.000000 654.000000"
 preserveAspectRatio="xMidYMid meet">
<metadata>
Created by potrace 1.16, written by Peter Selinger 2001-2019
</metadata>
<g transform="translate(0.000000,654.000000) scale(0.100000,-0.100000)"
fill="#000000" stroke="none">
<path d="M375 6496 c-168 -42 -306 -172 -356 -338 -17 -56 -21 -88 -17 -177 3
-103 5 -111 45 -192 l42 -84 2268 -2265 c2987 -2983 3076 -3071 3188 -3147
250 -168 499 -249 800 -260 264 -9 476 34 702 142 226 108 221 103 1133 1007
459 454 1670 1663 2691 2685 1854 1856 1856 1858 1890 1933 30 67 34 86 37
182 3 88 0 120 -17 176 -90 296 -423 436 -711 298 -60 -29 -248 -214 -2713
-2671 -1604 -1599 -2668 -2653 -2699 -2672 -84 -53 -140 -68 -258 -68 -118 0
-174 15 -258 68 -31 19 -1097 1076 -2699 2672 -2461 2455 -2653 2643 -2713
2672 -110 52 -242 67 -355 39z"/>
</g>
</svg>
