<?xml version="1.0" standalone="no"?>
<!DOCTYPE svg PUBLIC "-//W3C//DTD SVG 20010904//EN"
 "http://www.w3.org/TR/2001/REC-SVG-20010904/DTD/svg10.dtd">
<svg version="1.0" xmlns="http://www.w3.org/2000/svg"
 width="1280.000000pt" height="1280.000000pt" viewBox="0 0 1280.000000 1280.000000"
 preserveAspectRatio="xMidYMid meet">
<metadata>
Created by potrace 1.16, written by Peter Selinger 2001-2019
</metadata>
<g transform="translate(0.000000,1280.000000) scale(0.100000,-0.100000)"
fill="#000000" stroke="none">
<path d="M6175 9625 c-232 -36 -434 -116 -630 -248 -112 -76 -201 -164 -3188
-3147 l-2268 -2265 -42 -84 c-40 -81 -42 -89 -45 -192 -4 -89 0 -121 17 -177
90 -296 424 -436 711 -299 60 29 252 217 2713 2672 1602 1596 2668 2653 2699
2672 84 53 140 68 258 68 118 0 174 -15 258 -68 31 -19 1095 -1073 2699 -2672
2465 -2457 2653 -2642 2713 -2671 288 -138 621 2 711 298 17 56 20 88 17 176
-3 96 -7 115 -37 182 -34 75 -36 77 -1890 1933 -1021 1022 -2232 2231 -2691
2685 -912 904 -907 899 -1133 1007 -133 64 -278 108 -421 130 -123 18 -338 18
-451 0z"/>
</g>
</svg>
