<?xml version="1.0" standalone="no"?>
<!DOCTYPE svg PUBLIC "-//W3C//DTD SVG 20010904//EN"
 "http://www.w3.org/TR/2001/REC-SVG-20010904/DTD/svg10.dtd">
<svg version="1.0" xmlns="http://www.w3.org/2000/svg"
 width="1280.000000pt" height="654.000000pt" viewBox="0 0 1280.000000 654.000000"
 preserveAspectRatio="xMidYMid meet">
<metadata>
Created by potrace 1.16, written by Peter Selinger 2001-2019
</metadata>
<g transform="translate(0.000000,654.000000) scale(0.100000,-0.100000)"
fill="#000000" stroke="none">
<path d="M6215 6504 c-198 -30 -345 -74 -490 -146 -163 -82 -232 -136 -487
-382 -134 -128 -1347 -1335 -2696 -2681 -2416 -2411 -2454 -2449 -2495 -2529
l-42 -81 0 -145 c0 -128 3 -152 23 -202 49 -121 164 -234 287 -280 51 -20 79
-23 185 -23 152 0 213 19 298 92 83 71 735 715 2812 2783 2629 2616 2515 2504
2597 2543 65 31 73 32 193 32 120 0 128 -1 193 -32 82 -39 -24 65 2512 -2458
2269 -2258 2854 -2836 2919 -2885 69 -52 133 -72 245 -78 115 -6 183 8 274 55
92 49 169 127 215 222 l37 76 0 150 c0 184 -6 198 -130 340 -106 121 -4709
4723 -5055 5054 -293 281 -372 345 -510 415 -232 119 -386 156 -660 161 -107
2 -208 1 -225 -1z"/>
</g>
</svg>
